<svg xmlns="http://www.w3.org/2000/svg" viewBox="0 0 512 512" style="height: 512px; width: 512px;"><g class="" transform="translate(0,0)" style=""><g><path d="M256 24L236 48L248 67.2L248 105.9C253.3 106.2 258.7 106.2 264 105.9L264 67.2L276 48L256 24Z" class="selected" fill="#53a3f2" fill-opacity="1"></path><path d="M194.5 110.4L189.5 125.6C238.5 141.9 273.5 141.9 322.5 125.6L317.5 110.4C270.5 126.1 241.5 126.1 194.5 110.4Z" class="" fill="#53a3f2" fill-opacity="1"></path><path d="M232 152L232 280L248 280L248 152L232 152Z" class="" fill="#53a3f2" fill-opacity="1"></path><path d="M264 152L264 280L280 280L280 152L264 152Z" class="" fill="#53a3f2" fill-opacity="1"></path><path d="M212.9 296L204.9 312L307.1 312L299.1 296L212.9 296Z" class="" fill="#53a3f2" fill-opacity="1"></path><path d="M132.7 328L71.65 440L440.3 440L379.2 328L132.7 328Z" class="" fill="#53a3f2" fill-opacity="1"></path><path d="M176 344L272 344L272 360L176 360L176 344Z" class="" fill="#53a3f2" fill-opacity="1"></path><path d="M288 344L336 344L336 360L288 360L288 344Z" class="" fill="#53a3f2" fill-opacity="1"></path><path d="M176 376L208 376L208 392L176 392L176 376Z" class="" fill="#53a3f2" fill-opacity="1"></path><path d="M224 376L336 376L336 392L224 392L224 376Z" class="" fill="#53a3f2" fill-opacity="1"></path><path d="M176 408L240 408L240 424L176 424L176 408Z" class="" fill="#53a3f2" fill-opacity="1"></path><path d="M37.77 456L27.1 488L484.9 488L474.2 456L37.77 456Z" class="" fill="#53a3f2" fill-opacity="1"></path></g></g></svg>